<?xml version="1.0" encoding="UTF-8" standalone="no"?>
<!DOCTYPE svg PUBLIC "-//W3C//DTD SVG 1.1//EN" "http://www.w3.org/Graphics/SVG/1.1/DTD/svg11.dtd">
<svg version="1.1" xmlns="http://www.w3.org/2000/svg" xmlns:xlink="http://www.w3.org/1999/xlink" preserveAspectRatio="xMidYMid meet" viewBox="0 0 900 678" width="225" height="165"><defs><path d="M281.23 110.45C259.78 110.45 244.17 126.47 238.91 149.36C238.47 151.64 236.3 163.09 232.38 183.68L237.02 183.68L247.08 155.58L244.97 183.68L250.18 183.68L254.05 169.21L253.23 183.68L315.94 183.68C315.94 162.67 315.94 150.99 315.94 148.66C315.94 127.55 300.4 110.45 281.23 110.45C281.23 110.45 281.23 110.45 281.23 110.45Z" id="b6i5SZETEB"></path><path d="M252.89 294.71C252.89 294.71 221.16 338.81 222.71 356.6C224.26 374.4 244.37 664.53 244.37 664.53C247.52 664.69 263.25 665.46 291.57 666.85L277.64 457.96L289.25 401.48L317.88 664.53L375.9 666.08L324.06 324.88L314.01 294.71C281.41 294.71 261.03 294.71 252.89 294.71Z" id="ciEZnzruQ"></path><path d="M688.37 16.98L478.7 120.24L665.15 112.68L782.62 139.6L839.57 321.69L794.25 259.46L508.88 236.68L662.02 224.13L583.4 166.51L612.47 324.47" id="c1CmmrqK2o"></path><path d="M263.72 160.08C263.72 160.08 273.77 178.65 260.62 191.03C260.62 191.03 241.28 236.68 241.28 236.68C246.23 236.32 270.99 234.51 315.55 231.26C311.84 206.2 309.78 192.27 309.36 189.48C309.36 189.48 293.12 179.43 296.99 161.63C290.33 161.32 270.37 160.39 263.72 160.08Z" id="drj8m050"></path><path d="M251.34 209.6C251.34 209.6 255.98 223.53 276.1 221.98C288.34 220.96 300.1 216.68 310.14 209.6C310.14 215.64 310.14 245.81 310.14 300.12L248.24 297.8L248.24 242.87C249.89 225.13 250.93 214.04 251.34 209.6Z" id="a5jG28zEV9"></path><path d="M520.13 238.66L504.84 362.02L835.43 319.69L715.43 424.16L616.6 324.47L720.15 324.47L800.13 254.86L737.78 230.04L673.07 120.24L657.78 230.04L782.62 143.45L693.27 16.98L665.15 110.45L578.96 160.08L478.7 120.24L508.88 241.66" id="a3I5OQofB5"></path><path d="M255.21 300.12C257.99 290.84 259.54 285.68 259.85 284.65C259.85 284.65 258.3 248.28 252.11 233.58C252.11 233.58 263.94 194.84 265.76 183.65C265.37 183.94 263.4 185.36 259.85 187.94L224.26 204.96L236.64 269.17L245.15 283.1L236.33 319.69L255.21 300.12Z" id="d2npUwqlD"></path><path d="M285.38 297.03L303.18 200.32L298.29 176.33L312.46 190.26L340.31 198.77L327.16 271.5L319.42 286.97L323.25 321.69L285.38 297.03Z" id="a2y6DFlC0v"></path><path d="M356.56 362.02C356.56 362.02 364.3 395.29 348.82 399.15C348.82 399.15 338.77 362.02 338.77 362.02C342.32 362.02 353 362.02 356.56 362.02Z" id="b16QDfuw7T"></path><path d="M220.09 327.49C220.09 327.49 249.88 344.19 242.31 358.23C242.31 358.23 208.1 340.63 208.1 340.63C210.5 338 217.69 330.12 220.09 327.49Z" id="i1qbSZ6is"></path><path d="M328.71 200.32C335.67 199.39 339.54 198.87 340.31 198.77C340.31 198.77 347.28 208.05 348.05 215.02C348.05 215.02 361.2 339.58 361.2 339.58C362.09 342.15 361.21 344.67 360.43 365.89C360.2 366.81 358.34 374.24 358.11 375.17C358.11 375.17 353.47 357.38 335.67 366.66C335.44 365.58 333.58 356.91 333.35 355.83C333.35 355.83 328.71 314.82 328.71 295.48C328.71 295.48 327.16 255.25 327.16 255.25C327.37 247.92 327.88 229.61 328.71 200.32Z" id="a8ohEEnDr"></path><path d="M283.66 665.7C283.66 667.98 278.73 669.82 272.66 669.82C266.58 669.82 261.66 667.98 261.66 665.7C261.66 663.42 266.58 661.57 272.66 661.57C278.73 661.57 283.66 663.42 283.66 665.7Z" id="aVAqERHR4"></path><path d="M357.92 665.7C357.92 667.98 352.99 669.82 346.92 669.82C340.84 669.82 335.92 667.98 335.92 665.7C335.92 663.42 340.84 661.57 346.92 661.57C352.99 661.57 357.92 663.42 357.92 665.7Z" id="aqIYP0LQz"></path><path d="M232.77 204.18L224.26 204.96C212.65 249.99 206.21 275 204.92 280.01C204.92 280.01 202.57 377.45 221.94 358.92C221.94 358.92 214.97 338.81 232.77 331.84C232.77 329.11 232.77 315.44 232.77 290.84L238.96 255.25L232.77 204.18Z" id="a5v0F18ofr"></path><path d="M308.2 152.73C308.2 154.87 307.68 156.6 307.04 156.6C306.4 156.6 305.88 154.87 305.88 152.73C305.88 150.6 306.4 148.87 307.04 148.87C307.68 148.87 308.2 150.6 308.2 152.73Z" id="b5gHerhZjZ"></path><path d="M255.59 152.73C255.59 154.87 255.07 156.6 254.43 156.6C253.79 156.6 253.27 154.87 253.27 152.73C253.27 150.6 253.79 148.87 254.43 148.87C255.07 148.87 255.59 150.6 255.59 152.73Z" id="aoELnIdAh"></path><path d="M280.74 125.27C266.64 125.27 255.21 136.7 255.21 150.8C255.21 164.9 266.64 176.33 280.74 176.33C294.84 176.33 306.27 164.9 306.27 150.8C306.27 136.7 294.84 125.27 280.74 125.27Z" id="aJE8zM84Z"></path><path d="M268.87 143.45L286.54 143.45L288.86 138.81L288.37 143.45L309.75 143.45L295.05 120.24L262.56 121.01L254.82 143.45L266.43 143.45L269.52 137.26L269.52 137.26L268.87 143.45Z" id="a9vDuqyIM"></path><path d="M691.08 2.45C683.06 2.45 676.55 8.96 676.55 16.98C676.55 25.01 683.06 31.51 691.08 31.51C699.11 31.51 705.62 25.01 705.62 16.98C705.62 8.96 699.11 2.45 691.08 2.45Z" id="b2LYe4ESnQ"></path><path d="M508.88 347.86C500.85 347.86 494.35 354.36 494.35 362.39C494.35 370.41 500.85 376.92 508.88 376.92C516.91 376.92 523.41 370.41 523.41 362.39C523.41 354.36 516.91 347.86 508.88 347.86Z" id="b8PlL5vn"></path><path d="M510.88 222.97C502.85 222.97 496.35 229.48 496.35 237.51C496.35 245.53 502.85 252.04 510.88 252.04C518.9 252.04 525.41 245.53 525.41 237.51C525.41 229.48 518.9 222.97 510.88 222.97Z" id="h2xjEmDy8T"></path><path d="M782.62 125.07C774.6 125.07 768.09 131.57 768.09 139.6C768.09 147.62 774.6 154.13 782.62 154.13C790.65 154.13 797.16 147.62 797.16 139.6C797.16 131.57 790.65 125.07 782.62 125.07Z" id="b6HvbOb8Me"></path><path d="M839.57 305.9C831.54 305.9 825.04 312.4 825.04 320.43C825.04 328.45 831.54 334.96 839.57 334.96C847.6 334.96 854.1 328.45 854.1 320.43C854.1 312.4 847.6 305.9 839.57 305.9Z" id="c5hMHzqkMq"></path><path d="M797.28 241.66C789.25 241.66 782.75 248.17 782.75 256.2C782.75 264.22 789.25 270.73 797.28 270.73C805.3 270.73 811.81 264.22 811.81 256.2C811.81 248.17 805.3 241.66 797.28 241.66Z" id="brn9ojFwf"></path><path d="M478.7 103.06C470.67 103.06 464.17 109.56 464.17 117.59C464.17 125.61 470.67 132.12 478.7 132.12C486.72 132.12 493.23 125.61 493.23 117.59C493.23 109.56 486.72 103.06 478.7 103.06Z" id="atEjPwcvM"></path><path d="M712.32 405.98C704.3 405.98 697.79 412.49 697.79 420.52C697.79 428.54 704.3 435.05 712.32 435.05C720.35 435.05 726.85 428.54 726.85 420.52C726.85 412.49 720.35 405.98 712.32 405.98Z" id="a1jU9tzU6q"></path><path d="M146.76 670.59C146.76 670.59 153.3 641.34 138.9 622.04C124.49 602.75 94.59 600.72 94.59 600.72C94.59 600.72 88.04 629.97 102.45 649.26C116.85 668.56 137.9 666.32 146.76 670.59Z" id="bVOcjeqJG"></path><path d="M146.6 670.59C146.6 670.59 142.28 651.29 151.78 638.56C161.29 625.82 181.02 624.48 181.02 624.48C181.02 624.48 185.34 643.79 175.83 656.52C166.33 669.25 152.44 667.77 146.6 670.59Z" id="b65AMN7TsP"></path><path d="M693.27 673.31C693.27 673.31 693.27 673.31 693.27 673.31C693.27 674.65 693.27 675.4 693.27 675.55C693.27 675.55 693.27 675.55 693.27 675.55C295.24 675.55 74.11 675.55 29.89 675.55C29.89 675.55 29.89 675.55 29.89 675.55C29.89 674.21 29.89 673.46 29.89 673.31C29.89 673.31 29.89 673.31 29.89 673.31C427.91 673.31 649.04 673.31 693.27 673.31Z" id="c2g7RbXChe"></path><path d="M612.47 309.94C604.44 309.94 597.93 316.44 597.93 324.47C597.93 332.49 604.44 339 612.47 339C620.49 339 627 332.49 627 324.47C627 316.44 620.49 309.94 612.47 309.94Z" id="bjwMKaUdb"></path><path d="M665.15 98.15C657.13 98.15 650.62 104.66 650.62 112.68C650.62 120.71 657.13 127.21 665.15 127.21C673.18 127.21 679.69 120.71 679.69 112.68C679.69 104.66 673.18 98.15 665.15 98.15Z" id="cpkSnouL5"></path><path d="M720.15 312.95C712.12 312.95 705.62 319.46 705.62 327.49C705.62 335.51 712.12 342.02 720.15 342.02C728.17 342.02 734.68 335.51 734.68 327.49C734.68 319.46 728.17 312.95 720.15 312.95Z" id="atvsrfuZO"></path><path d="M583.4 145.55C575.38 145.55 568.87 152.06 568.87 160.08C568.87 168.11 575.38 174.62 583.4 174.62C591.43 174.62 597.93 168.11 597.93 160.08C597.93 152.06 591.43 145.55 583.4 145.55Z" id="a2ZzJWadW"></path><path d="M662.02 209.6C654 209.6 647.49 216.11 647.49 224.13C647.49 232.16 654 238.66 662.02 238.66C670.05 238.66 676.55 232.16 676.55 224.13C676.55 216.11 670.05 209.6 662.02 209.6Z" id="cCyWQL1X"></path><path d="M734.68 212.6C726.65 212.6 720.15 219.11 720.15 227.13C720.15 235.16 726.65 241.66 734.68 241.66C742.7 241.66 749.21 235.16 749.21 227.13C749.21 219.11 742.7 212.6 734.68 212.6Z" id="b32n4vA185"></path></defs><g><g><g><use xlink:href="#b6i5SZETEB" opacity="1" fill="#2f2e41" fill-opacity="1"></use><g><use xlink:href="#b6i5SZETEB" opacity="1" fill-opacity="0" stroke="#000000" stroke-width="1" stroke-opacity="0"></use></g></g><g><use xlink:href="#ciEZnzruQ" opacity="1" fill="#2f2e41" fill-opacity="1"></use><g><use xlink:href="#ciEZnzruQ" opacity="1" fill-opacity="0" stroke="#000000" stroke-width="1" stroke-opacity="0"></use></g></g><g><g><use xlink:href="#c1CmmrqK2o" opacity="1" fill-opacity="0" stroke="#000000" stroke-width="1" stroke-opacity="0.5"></use></g></g><g><use xlink:href="#drj8m050" opacity="1" fill="#ffb8b8" fill-opacity="1"></use><g><use xlink:href="#drj8m050" opacity="1" fill-opacity="0" stroke="#000000" stroke-width="1" stroke-opacity="0"></use></g></g><g><use xlink:href="#a5jG28zEV9" opacity="1" fill="#0a7aa3" fill-opacity="1"></use><g><use xlink:href="#a5jG28zEV9" opacity="1" fill-opacity="0" stroke="#000000" stroke-width="1" stroke-opacity="0"></use></g></g><g><g><use xlink:href="#a3I5OQofB5" opacity="1" fill-opacity="0" stroke="#000000" stroke-width="1" stroke-opacity="0.55"></use></g></g><g><use xlink:href="#d2npUwqlD" opacity="1" fill="#3f3d56" fill-opacity="1"></use><g><use xlink:href="#d2npUwqlD" opacity="1" fill-opacity="0" stroke="#000000" stroke-width="1" stroke-opacity="0"></use></g></g><g><use xlink:href="#a2y6DFlC0v" opacity="1" fill="#3f3d56" fill-opacity="1"></use><g><use xlink:href="#a2y6DFlC0v" opacity="1" fill-opacity="0" stroke="#000000" stroke-width="1" stroke-opacity="0"></use></g></g><g><use xlink:href="#b16QDfuw7T" opacity="1" fill="#ffb8b8" fill-opacity="1"></use><g><use xlink:href="#b16QDfuw7T" opacity="1" fill-opacity="0" stroke="#000000" stroke-width="1" stroke-opacity="0"></use></g></g><g><use xlink:href="#i1qbSZ6is" opacity="1" fill="#ffb8b8" fill-opacity="1"></use><g><use xlink:href="#i1qbSZ6is" opacity="1" fill-opacity="0" stroke="#000000" stroke-width="1" stroke-opacity="0"></use></g></g><g><use xlink:href="#a8ohEEnDr" opacity="1" fill="#3f3d56" fill-opacity="1"></use><g><use xlink:href="#a8ohEEnDr" opacity="1" fill-opacity="0" stroke="#000000" stroke-width="1" stroke-opacity="0"></use></g></g><g><use xlink:href="#aVAqERHR4" opacity="1" fill="#2f2e41" fill-opacity="1"></use><g><use xlink:href="#aVAqERHR4" opacity="1" fill-opacity="0" stroke="#000000" stroke-width="1" stroke-opacity="0"></use></g></g><g><use xlink:href="#aqIYP0LQz" opacity="1" fill="#2f2e41" fill-opacity="1"></use><g><use xlink:href="#aqIYP0LQz" opacity="1" fill-opacity="0" stroke="#000000" stroke-width="1" stroke-opacity="0"></use></g></g><g><use xlink:href="#a5v0F18ofr" opacity="1" fill="#3f3d56" fill-opacity="1"></use><g><use xlink:href="#a5v0F18ofr" opacity="1" fill-opacity="0" stroke="#000000" stroke-width="1" stroke-opacity="0"></use></g></g><g><use xlink:href="#b5gHerhZjZ" opacity="1" fill="#ffb8b8" fill-opacity="1"></use><g><use xlink:href="#b5gHerhZjZ" opacity="1" fill-opacity="0" stroke="#000000" stroke-width="1" stroke-opacity="0"></use></g></g><g><use xlink:href="#aoELnIdAh" opacity="1" fill="#ffb8b8" fill-opacity="1"></use><g><use xlink:href="#aoELnIdAh" opacity="1" fill-opacity="0" stroke="#000000" stroke-width="1" stroke-opacity="0"></use></g></g><g><use xlink:href="#aJE8zM84Z" opacity="1" fill="#ffb8b8" fill-opacity="1"></use><g><use xlink:href="#aJE8zM84Z" opacity="1" fill-opacity="0" stroke="#000000" stroke-width="1" stroke-opacity="0"></use></g></g><g><use xlink:href="#a9vDuqyIM" opacity="1" fill="#2f2e41" fill-opacity="1"></use><g><use xlink:href="#a9vDuqyIM" opacity="1" fill-opacity="0" stroke="#000000" stroke-width="1" stroke-opacity="0"></use></g></g><g><use xlink:href="#b2LYe4ESnQ" opacity="1" fill="#0a7aa3" fill-opacity="1"></use><g><use xlink:href="#b2LYe4ESnQ" opacity="1" fill-opacity="0" stroke="#000000" stroke-width="1" stroke-opacity="0"></use></g></g><g><use xlink:href="#b8PlL5vn" opacity="1" fill="#0a7aa3" fill-opacity="1"></use><g><use xlink:href="#b8PlL5vn" opacity="1" fill-opacity="0" stroke="#000000" stroke-width="1" stroke-opacity="0"></use></g></g><g><use xlink:href="#h2xjEmDy8T" opacity="1" fill="#e6e6e6" fill-opacity="1"></use><g><use xlink:href="#h2xjEmDy8T" opacity="1" fill-opacity="0" stroke="#000000" stroke-width="1" stroke-opacity="0"></use></g></g><g><use xlink:href="#b6HvbOb8Me" opacity="1" fill="#e6e6e6" fill-opacity="1"></use><g><use xlink:href="#b6HvbOb8Me" opacity="1" fill-opacity="0" stroke="#000000" stroke-width="1" stroke-opacity="0"></use></g></g><g><use xlink:href="#c5hMHzqkMq" opacity="1" fill="#e6e6e6" fill-opacity="1"></use><g><use xlink:href="#c5hMHzqkMq" opacity="1" fill-opacity="0" stroke="#000000" stroke-width="1" stroke-opacity="0"></use></g></g><g><use xlink:href="#brn9ojFwf" opacity="1" fill="#0a7aa3" fill-opacity="1"></use><g><use xlink:href="#brn9ojFwf" opacity="1" fill-opacity="0" stroke="#000000" stroke-width="1" stroke-opacity="0"></use></g></g><g><use xlink:href="#atEjPwcvM" opacity="1" fill="#0a7aa3" fill-opacity="1"></use><g><use xlink:href="#atEjPwcvM" opacity="1" fill-opacity="0" stroke="#000000" stroke-width="1" stroke-opacity="0"></use></g></g><g><use xlink:href="#a1jU9tzU6q" opacity="1" fill="#0a7aa3" fill-opacity="1"></use><g><use xlink:href="#a1jU9tzU6q" opacity="1" fill-opacity="0" stroke="#000000" stroke-width="1" stroke-opacity="0"></use></g></g><g><use xlink:href="#bVOcjeqJG" opacity="1" fill="#e6e6e6" fill-opacity="1"></use><g><use xlink:href="#bVOcjeqJG" opacity="1" fill-opacity="0" stroke="#000000" stroke-width="1" stroke-opacity="0"></use></g></g><g><use xlink:href="#b65AMN7TsP" opacity="1" fill="#e6e6e6" fill-opacity="1"></use><g><use xlink:href="#b65AMN7TsP" opacity="1" fill-opacity="0" stroke="#000000" stroke-width="1" stroke-opacity="0"></use></g></g><g><use xlink:href="#c2g7RbXChe" opacity="1" fill="#3f3d56" fill-opacity="1"></use><g><use xlink:href="#c2g7RbXChe" opacity="1" fill-opacity="0" stroke="#000000" stroke-width="1" stroke-opacity="0"></use></g></g><g><use xlink:href="#bjwMKaUdb" opacity="1" fill="#0a7aa3" fill-opacity="1"></use><g><use xlink:href="#bjwMKaUdb" opacity="1" fill-opacity="0" stroke="#000000" stroke-width="1" stroke-opacity="0"></use></g></g><g><use xlink:href="#cpkSnouL5" opacity="1" fill="#0a7aa3" fill-opacity="1"></use><g><use xlink:href="#cpkSnouL5" opacity="1" fill-opacity="0" stroke="#000000" stroke-width="1" stroke-opacity="0"></use></g></g><g><use xlink:href="#atvsrfuZO" opacity="1" fill="#e6e6e6" fill-opacity="1"></use><g><use xlink:href="#atvsrfuZO" opacity="1" fill-opacity="0" stroke="#000000" stroke-width="1" stroke-opacity="0"></use></g></g><g><use xlink:href="#a2ZzJWadW" opacity="1" fill="#e6e6e6" fill-opacity="1"></use><g><use xlink:href="#a2ZzJWadW" opacity="1" fill-opacity="0" stroke="#000000" stroke-width="1" stroke-opacity="0"></use></g></g><g><use xlink:href="#cCyWQL1X" opacity="1" fill="#e6e6e6" fill-opacity="1"></use><g><use xlink:href="#cCyWQL1X" opacity="1" fill-opacity="0" stroke="#000000" stroke-width="1" stroke-opacity="0"></use></g></g><g><use xlink:href="#b32n4vA185" opacity="1" fill="#0a7aa3" fill-opacity="1"></use><g><use xlink:href="#b32n4vA185" opacity="1" fill-opacity="0" stroke="#000000" stroke-width="1" stroke-opacity="0"></use></g></g></g></g></svg>