<?xml version="1.0" encoding="UTF-8" standalone="no"?>
<svg
   xmlns:dc="http://purl.org/dc/elements/1.1/"
   xmlns:cc="http://creativecommons.org/ns#"
   xmlns:rdf="http://www.w3.org/1999/02/22-rdf-syntax-ns#"
   xmlns:svg="http://www.w3.org/2000/svg"
   xmlns="http://www.w3.org/2000/svg"
   viewBox="0 0 1122.52 793.70667"
   height="793.70667"
   width="1122.52"
   xml:space="preserve"
   id="svg2"
   version="1.1"><metadata
     id="metadata8"><rdf:RDF><cc:Work
         rdf:about=""><dc:format>image/svg+xml</dc:format><dc:type
           rdf:resource="http://purl.org/dc/dcmitype/StillImage" /></cc:Work></rdf:RDF></metadata><defs
     id="defs6"><clipPath
       id="clipPath18"
       clipPathUnits="userSpaceOnUse"><path
         id="path16"
         d="M 0,595.28 H 841.89 V 0 H 0 Z" /></clipPath></defs><g
     transform="matrix(1.3333333,0,0,-1.3333333,0,793.70667)"
     id="g10"><g
       id="g12"><g
         clip-path="url(#clipPath18)"
         id="g14"><g
           transform="translate(406.8496,326.3171)"
           id="g20"><path
             id="path22"
             style="fill:#23396a;fill-opacity:1;fill-rule:nonzero;stroke:none"
             d="m 0,0 -10.125,-19.275 c -0.22,-0.417 -0.844,-0.417 -1.064,0 L -21.323,0 c -0.101,0.193 -0.301,0.313 -0.519,0.313 h -4.897 c -0.333,0 -0.545,-0.354 -0.388,-0.647 l 15.952,-29.858 c 0.221,-0.412 0.814,-0.412 1.034,0 L 5.812,-0.335 C 5.97,-0.042 5.757,0.313 5.425,0.313 H 0.519 C 0.301,0.313 0.102,0.192 0,0" /></g><g
           transform="translate(412.5977,300.5964)"
           id="g24"><path
             id="path26"
             style="fill:#23396a;fill-opacity:1;fill-rule:nonzero;stroke:none"
             d="m 0,0 10.125,19.275 c 0.221,0.417 0.845,0.417 1.064,0 L 21.323,0 c 0.102,-0.193 0.302,-0.313 0.519,-0.313 h 4.897 c 0.333,0 0.545,0.354 0.388,0.647 L 11.175,30.192 c -0.221,0.413 -0.814,0.413 -1.034,0 L -5.812,0.335 c -0.158,-0.293 0.055,-0.648 0.388,-0.648 h 4.905 c 0.218,0 0.417,0.121 0.519,0.313" /></g><g
           transform="translate(336.8569,300.2839)"
           id="g28"><path
             id="path30"
             style="fill:#23396a;fill-opacity:1;fill-rule:nonzero;stroke:none"
             d="m 0,0 -9.129,-0.001 c -0.324,0 -0.586,0.263 -0.586,0.587 l -10e-4,8.185 c 0,0.324 0.263,0.587 0.587,0.587 H 0 C 4.351,9.358 6.293,8.125 6.293,4.679 6.293,1.232 4.393,0 0,0 m -9.124,21.891 h 9.002 c 3.318,0 5.008,-1.42 5.008,-4.035 0,-2.627 -1.684,-4.035 -5.008,-4.035 h -9.002 c -0.323,0 -0.586,0.262 -0.586,0.586 v 6.897 c 0,0.324 0.263,0.587 0.586,0.587 M 6.549,12.127 c 2.113,1.058 3.433,3.346 3.433,6.164 0,4.798 -3.742,8.056 -9.024,8.056 h -15.179 c -0.324,0 -0.586,-0.263 -0.586,-0.586 V -3.881 c 0,-0.325 0.262,-0.587 0.586,-0.587 H 0.292 c 7.263,0 11.093,3.126 11.093,9.244 0,5.974 -4.836,7.351 -4.836,7.351" /></g><g
           transform="translate(367.9927,300.2839)"
           id="g32"><path
             id="path34"
             style="fill:#23396a;fill-opacity:1;fill-rule:nonzero;stroke:none"
             d="m 0,0 -9.128,-0.001 c -0.324,0 -0.587,0.263 -0.587,0.587 v 8.185 c 0,0.324 0.262,0.587 0.587,0.587 H 0 C 4.351,9.358 6.294,8.125 6.294,4.679 6.294,1.232 4.393,0 0,0 m -9.123,21.891 h 9.001 c 3.319,0 5.008,-1.42 5.008,-4.035 0,-2.627 -1.683,-4.035 -5.007,-4.035 h -9.002 c -0.324,0 -0.586,0.262 -0.586,0.586 v 6.897 c 0,0.324 0.262,0.587 0.586,0.587 M 6.549,12.127 c 2.113,1.058 3.433,3.346 3.433,6.164 0,4.798 -3.741,8.056 -9.024,8.056 H -14.22 c -0.324,0 -0.587,-0.263 -0.587,-0.586 V -3.881 c 0,-0.325 0.263,-0.587 0.587,-0.587 H 0.292 c 7.264,0 11.094,3.126 11.094,9.244 0,5.974 -4.837,7.351 -4.837,7.351" /></g><g
           transform="translate(251.251,337.4738)"
           id="g36"><path
             id="path38"
             style="fill:#46a4e0;fill-opacity:1;fill-rule:nonzero;stroke:none"
             d="m 0,0 v 17.862 h 11.248 v -2.799 h -8.23 v -4.78 H 9.076 L 9.511,7.604 H 3.018 L 3.018,0 Z" /></g><g
           transform="translate(263.3745,340.9499)"
           id="g40"><path
             id="path42"
             style="fill:#46a4e0;fill-opacity:1;fill-rule:nonzero;stroke:none"
             d="m 0,0 v 9.317 h 2.969 v -8.52 c 0,-1.352 0.555,-2.028 1.931,-2.028 1.279,0 2.365,0.676 3.476,1.69 v 8.858 h 2.969 V -3.476 H 8.618 L 8.376,-1.689 C 7.434,-2.704 5.89,-3.741 3.79,-3.741 1.449,-3.741 0,-2.534 0,0" /></g><g
           transform="translate(278.0591,337.4738)"
           id="g44"><path
             id="path46"
             style="fill:#46a4e0;fill-opacity:1;fill-rule:nonzero;stroke:none"
             d="m 0,0 v 12.793 h 2.727 l 0.242,-1.81 c 0.942,1.062 2.486,2.076 4.61,2.076 2.317,0 3.766,-1.207 3.766,-3.742 V 0 H 8.4 v 8.449 c 0,1.424 -0.579,2.148 -1.955,2.148 -1.279,0 -2.365,-0.652 -3.476,-1.666 L 2.969,0 Z" /></g><g
           transform="translate(301.0708,341.3117)"
           id="g48"><path
             id="path50"
             style="fill:#46a4e0;fill-opacity:1;fill-rule:nonzero;stroke:none"
             d="m 0,0 v 5.214 c -1.039,1.015 -1.931,1.545 -3.163,1.545 -1.81,0 -3.017,-1.376 -3.017,-4.248 0,-2.631 1.159,-4.104 3.066,-4.104 1.231,0 2.22,0.676 3.114,1.593 m -9.148,2.486 c 0,4.442 2.171,6.735 5.117,6.735 1.737,0 3.137,-0.604 4.031,-1.714 v 6.3 l 2.969,0.434 V -3.838 H 0.241 L 0,-2.148 c -0.87,-1.086 -2.173,-1.882 -4.08,-1.882 -2.92,0 -5.068,2.075 -5.068,6.516" /></g><g
           transform="translate(314.9092,341.0461)"
           id="g52"><path
             id="path54"
             style="fill:#46a4e0;fill-opacity:1;fill-rule:nonzero;stroke:none"
             d="M 0,0 V 2.824 C -4.127,2.246 -5.455,1.353 -5.455,0.073 c 0,-1.014 0.7,-1.545 1.81,-1.545 1.521,0 2.728,0.555 3.645,1.472 m -8.351,-0.41 c 0,2.825 2.365,4.562 8.351,5.238 v 0.386 c 0,1.182 -0.7,1.835 -2.22,1.835 -1.666,0 -2.945,-0.724 -4.128,-1.714 l -1.617,1.811 c 1.351,1.254 3.186,2.34 6.132,2.34 3.306,0 4.73,-1.641 4.73,-4.634 V -3.572 H 0.242 L 0,-1.931 c -1.23,-1.255 -2.8,-1.834 -4.706,-1.834 -2.1,0 -3.645,1.255 -3.645,3.355" /></g><g
           transform="translate(320.2993,343.8703)"
           id="g56"><path
             id="path58"
             style="fill:#46a4e0;fill-opacity:1;fill-rule:nonzero;stroke:none"
             d="m 0,0 c 0,4.9 3.307,6.662 6.155,6.662 2.317,0 4.2,-1.134 5.19,-3.234 L 9.148,2.027 C 8.497,3.5 7.628,4.2 6.155,4.2 4.417,4.2 2.969,2.897 2.969,-0.024 c 0,-2.559 1.135,-4.247 3.186,-4.247 1.496,0 2.463,0.844 3.187,2.388 l 2.196,-1.375 C 10.379,-5.624 8.376,-6.662 5.986,-6.662 3.017,-6.662 0,-4.683 0,0" /></g><path
           id="path60"
           style="fill:#46a4e0;fill-opacity:1;fill-rule:nonzero;stroke:none"
           d="m 334.331,350.267 h 2.945 v -12.793 h -2.945 z m -0.241,3.476 c 0,0.893 0.603,1.569 1.689,1.569 1.111,0 1.738,-0.676 1.738,-1.569 0,-0.893 -0.627,-1.568 -1.738,-1.568 -1.086,0 -1.689,0.675 -1.689,1.568" /><g
           transform="translate(347.0303,355.6506)"
           id="g62"><path
             id="path64"
             style="fill:#46a4e0;fill-opacity:1;fill-rule:nonzero;stroke:none"
             d="m 0,0 h 3.21 l -3.5,-4.008 h -1.955 z m 2.535,-11.805 c 0,2.367 -1.038,4.152 -3.283,4.152 -2.148,0 -3.283,-1.616 -3.283,-4.152 0,-2.437 0.989,-4.151 3.283,-4.151 2.148,0 3.283,1.714 3.283,4.151 M -7,-11.78 c 0,4.707 3.113,6.662 6.252,6.662 3.114,0 6.227,-1.955 6.227,-6.662 0,-4.683 -3.113,-6.662 -6.227,-6.662 -3.114,0 -6.252,1.979 -6.252,6.662" /></g><g
           transform="translate(355.1484,337.4738)"
           id="g66"><path
             id="path68"
             style="fill:#46a4e0;fill-opacity:1;fill-rule:nonzero;stroke:none"
             d="m 0,0 v 12.793 h 2.727 l 0.242,-1.81 c 0.941,1.062 2.486,2.076 4.61,2.076 2.317,0 3.766,-1.207 3.766,-3.742 V 0 H 8.4 v 8.449 c 0,1.424 -0.579,2.148 -1.955,2.148 -1.279,0 -2.365,-0.652 -3.476,-1.666 L 2.969,0 Z" /></g></g></g></g></svg>